PathFileType	4	(X/Y/Z)	Patient4_TMGait_0pt4_03_left_33.trc.trc
DataRate	CameraRate	NumFrames	NumMarkers	Units	OrigDataRate	OrigDataStartFrame	OrigNumFrames
72.538860103627	72.538860103627	5	33	mm	72.538860103627	18	       141
Frame#	Time	Sacral			L.Shoulder			Chest			R.Shoulder			Neck			R.ASIS			L.ASIS			R.Thigh.Superior			R.Thigh.Lateral			R.Thigh.Inferior			R.Patella			L.Thigh.Superior			L.Thigh.Lateral			L.Thigh.Inferior			L.Patella			L.Shank.Superior			L.Shank.Lateral			L.Shank.Inferior			R.Shank.Superior			R.Shank.Lateral			R.Shank.Inferior			R.Heel			R.Midfoot.Superior			R.Midfoot.Lateral			R.Toe			L.Heel			L.Midfoot.Lateral			L.Midfoot.Superior			L.Toe			L.Elbow			L.Wrist			R.Elbow			R.Wrist			
		X1	Y1	Z1	X2	Y2	Z2	X3	Y3	Z3	X4	Y4	Z4	X5	Y5	Z5	X6	Y6	Z6	X7	Y7	Z7	X8	Y8	Z8	X9	Y9	Z9	X10	Y10	Z10	X11	Y11	Z11	X12	Y12	Z12	X13	Y13	Z13	X14	Y14	Z14	X15	Y15	Z15	X16	Y16	Z16	X17	Y17	Z17	X18	Y18	Z18	X19	Y19	Z19	X20	Y20	Z20	X21	Y21	Z21	X22	Y22	Z22	X23	Y23	Z23	X24	Y24	Z24	X25	Y25	Z25	X26	Y26	Z26	X27	Y27	Z27	X28	Y28	Z28	X29	Y29	Z29	X30	Y30	Z30	X31	Y31	Z31	X32	Y32	Z32	X33	Y33	Z33	

18	43.784357142857	859.558836861534	1011.804524948995	522.939262995232	1016.396049550945	1434.221701120077	318.177341688008	1146.693395087011	1363.343690475258	456.707103058930	1100.142798576671	1438.242131184227	643.692558578607	1025.906163084219	1494.260604790336	474.166916590146	1099.095645101343	937.338038977402	602.855957022074	1047.830945612982	963.169938203438	333.467345633520	1099.292742998325	727.945043669754	575.560283713535	1005.101691511918	630.775886103790	645.216817499315	1062.520022987461	568.350415029437	560.622588375858	1048.796039699349	485.110144618239	567.434218444410	1121.850281825415	777.825376726829	358.822228205713	1074.630171527331	652.344246448052	276.737479684416	1178.336682180751	591.462721780714	335.709595763743	1206.065201913354	526.855200320343	327.110120065855	1186.740774419415	455.522000663222	315.369128127254	1116.020118338929	328.673135405376	261.466590479876	1202.464525685631	225.179908969529	310.141088154807	1014.806637643478	399.803245408461	575.296354459399	938.994329549186	300.459379778113	640.087167059866	971.239124854957	203.739953735265	572.704397761124	829.964140797245	42.985065990566	540.297763249740	999.643048351747	95.373692811875	579.649863861357	911.445509401608	36.733302457777	617.481778066256	1119.830469219106	42.967533898706	610.762377895585	1117.008371709133	46.492803268978	347.027481321272	1189.043563491724	50.452505242040	265.400726418834	1261.745680632573	127.420272311086	285.759450474297	1394.351415890269	96.645203306562	255.201810887531	880.410509669900	1100.293110966253	243.704144087241	873.663612427211	838.270764578929	267.332034094279	1226.782019008253	1130.356385246006	772.610959621206	1433.061930699432	1241.243096206900	693.097741754883	
19	43.798142857143	860.071308440908	1010.930317740272	521.411234076730	1015.619779939714	1433.616635003639	316.379839378635	1146.281262008746	1362.897718797136	454.631430719747	1099.873333077802	1437.520627959156	641.742797867438	1025.406761801794	1493.574790340047	472.364317833439	1099.748748247171	936.838253100231	601.159664917875	1048.197298585452	962.101305801183	331.681540588123	1098.206715151027	726.994867114442	574.552616287101	1002.764331546981	630.609537197079	644.349891795645	1059.550096809021	567.596848922633	560.102266411436	1045.156657696182	484.419530556837	566.943073402775	1121.475230078638	775.569358962328	356.813269187887	1071.766825556822	649.401194433253	276.720653188993	1175.965072006150	588.479912826576	334.466254768833	1203.202430975771	524.336290597239	327.023419394806	1184.428451788175	453.172262321663	315.956632763703	1114.413194619286	325.532555554389	263.362953373806	1201.817912964489	223.017661947287	312.173827366612	1010.599546640905	399.444861843446	574.816013813109	934.332354436198	300.548440896796	639.781693032064	966.135681802177	203.577688844659	572.546432233447	824.372894465073	42.928656522205	540.319867334752	994.041363808754	95.332323561051	579.644623278001	905.843908932571	36.671106329415	617.512650379971	1114.193941146023	42.951032551759	610.799974279210	1117.294993391589	45.324870080460	350.588204708449	1189.128258436754	48.155786906448	268.831126094145	1262.264352926097	124.533263479332	288.511680519336	1394.492080995333	92.626658680864	258.103019404144	879.269549755425	1100.011282319822	241.913706318973	873.651155539122	837.859582599459	265.443516669679	1228.936080141036	1129.557293362877	768.309058399878	1435.082565831806	1241.554384690019	689.852349921023	
20	43.811928571429	860.780938870571	1009.879271782376	519.572087405389	1014.879495980434	1432.862121685849	314.299861853425	1145.838764215412	1362.481628941895	452.425562890487	1099.307832749624	1436.797955657714	639.610261282155	1024.776970987777	1492.808832823514	470.289079358488	1100.586039299823	936.282693797287	599.401779751328	1048.948007011256	960.935786081550	329.850120427728	1097.436214086644	725.993860365379	573.432470948452	1000.755549086158	630.373185987457	643.341725625019	1056.969361820379	566.781902013050	559.459580359927	1041.918373606950	483.602685905983	566.316851979551	1121.626255190459	773.199329681809	354.680850958060	1069.254524210858	646.325332180234	276.832559540585	1173.998332504174	585.461741585103	333.343754075995	1200.574998846352	521.476645847020	327.047558675717	1181.945173335980	450.339487741483	316.677249133039	1111.726432253889	322.362637284627	265.681404857616	1199.495221907884	220.332171028521	314.532346016638	1006.717066776593	398.987717991266	574.226904298061	929.911040744109	300.628284554789	639.397700137176	961.155815539921	203.361652178638	572.340102847350	818.786114699408	42.872151194945	540.354423778778	988.440350001793	95.284863613053	579.634051880542	900.247802237142	36.599159858266	617.543583670317	1108.566628333909	42.914922098222	610.842884104898	1114.804448793727	44.299355603437	354.673920664643	1186.177135874009	45.809134655534	272.547942050907	1260.323712623902	120.965283054190	291.565892491551	1391.842700763752	87.135556767817	260.748475731370	878.705893016271	1099.362899565737	239.639813017787	874.609311327532	837.069171940001	262.733777889949	1230.227892660492	1128.496864429603	764.007297326254	1437.019920365919	1240.500467256922	686.821932976754	
21	43.825714285714	861.645871270785	1008.686441613200	517.435733052891	1014.201071214465	1431.963842714937	311.935163984589	1145.392230910662	1362.086864667511	450.080772240016	1098.499287221561	1436.082547015447	637.290703495569	1024.059638105301	1491.975168539289	467.936832748912	1101.577649456535	935.673379321582	597.575330543589	1050.031898138824	959.706279580791	327.975937964897	1097.006576381315	724.954560071302	572.188099950918	999.133969269458	630.056199798835	642.171585056018	1054.840665015100	565.899417250219	558.658380066205	1039.149529589429	482.647992583164	565.516888107166	1122.235619837969	770.754759213538	352.502446117079	1067.144834439051	643.235249436608	277.024629454039	1172.419299945082	582.502921833133	332.428542995668	1198.177232336608	518.394187256394	327.251307570653	1179.386125659536	447.156026547765	317.517902892581	1108.266432244709	319.210927073457	268.207218194454	1195.864678716596	217.233994547794	317.095225610253	1003.219831018607	398.418480503722	573.499662572521	925.785982850544	300.700467079018	638.918262902808	956.331906970487	203.089853687509	572.071847571665	813.210169227337	42.836675235178	540.409024482887	982.849619476671	95.235687134413	579.615596556756	894.665367048750	36.528388902052	617.575599526320	1102.959738023771	42.849924588005	610.892702241601	1110.071890609399	43.314800175434	358.938503952547	1180.832940501615	43.494257158261	276.290165520657	1256.399842600004	116.950024980025	294.813695208677	1387.008379828344	80.674757097059	263.170816187324	878.722122639962	1098.350717703018	236.912527978526	876.494763895228	835.913916862266	259.218444529319	1230.670009345962	1127.168738134801	759.755481811262	1438.862776923215	1238.070366261788	684.031028409007	
22	43.839500000000	862.613408561541	1007.404621231659	515.026918883085	1013.614112244932	1430.943367497326	309.290370676006	1144.969959622914	1361.710026110257	447.590741479241	1097.514602746013	1435.394633021676	634.781225742813	1023.305985602491	1491.101146817339	465.308573253182	1102.682305933892	935.024987692512	595.673195898318	1051.373703335518	958.463091161631	326.057001187227	1096.931751727333	723.902135244859	570.809278228417	997.946392285426	629.658990134006	640.818758692614	1053.216528736270	564.954024962335	557.665419518660	1036.908052343460	481.554899021188	564.508609560463	1123.228292789554	768.313592819513	350.348120069133	1065.491856059776	640.278607398718	277.226004002254	1171.222372136573	579.723046186787	331.760800364578	1196.016548120721	515.244040811719	327.657355609994	1176.868847056863	443.802167296603	318.426188545733	1104.387380832109	316.174259156492	270.688125799079	1191.347068450407	213.904855039747	319.705287778654	1000.158216129381	397.735237817401	572.608342004165	922.003095578480	300.776670664953	638.326609569658	951.694166964604	202.771607019459	571.730338962240	807.652256375635	42.856811279829	540.491003758414	977.283197628545	95.193739573300	579.589537835332	889.105960127306	36.476953391724	617.610345580182	1097.384246121715	42.744955387088	610.951351973566	1103.719439051828	42.336203280962	363.035938527656	1173.825384601299	41.329218490548	279.801238281918	1251.033431442841	112.787555771745	298.105472637147	1380.656903276715	73.829476144293	265.386933227955	879.331775993669	1096.994487418836	233.763531674034	879.264157153338	834.426502780925	254.926798355345	1230.285369469171	1125.580615808738	755.593598342632	1440.597140035655	1234.242723696067	681.505605050178	
